<svg width="283" height="248" viewBox="0 0 283 248" fill="none" xmlns="http://www.w3.org/2000/svg">
<path d="M113.05 8.0796C113.335 8.22192 113.62 8.36423 113.913 8.51087C121.339 12.2519 127.606 17.7466 133.719 23.4653C133.969 23.6619 134.22 23.8585 134.477 24.061C135.432 25.365 135.271 26.4923 135.274 28.1152C135.278 28.6009 135.278 28.6009 135.281 29.0965C135.286 29.7993 135.287 30.5022 135.286 31.205C135.284 32.3189 135.29 33.4324 135.299 34.5462C135.316 36.9127 135.322 39.2791 135.327 41.6456C135.332 44.3834 135.342 47.1211 135.364 49.8588C135.37 50.9535 135.368 52.0479 135.366 53.1426C135.37 53.8183 135.375 54.494 135.38 55.1697C135.381 55.7568 135.382 56.344 135.383 56.9489C135.621 59.1637 136.264 60.8131 137.853 62.3201C139.624 63.4206 141.352 63.7262 143.365 63.3719C144.17 63.0163 144.963 62.6327 145.747 62.23C149.952 60.1138 154.041 59.4282 158.522 60.9679C163.388 62.9091 166.049 66.1373 168.168 71.0647C169.424 74.9217 169.116 80.2313 167.454 83.8811C165.024 88.0059 162.105 90.8817 157.604 92.22C153.193 93.1056 149.852 92.5064 145.778 90.6987C143.231 89.6116 141.408 89.0141 138.716 89.8611C137.394 90.5283 136.747 91.3923 136.016 92.7008C135.526 94.24 135.484 95.3806 135.462 96.9993C135.453 97.5864 135.444 98.1734 135.434 98.7783C135.427 99.4124 135.419 100.046 135.411 100.7C135.402 101.355 135.392 102.011 135.382 102.666C135.357 104.39 135.334 106.114 135.312 107.838C135.289 109.598 135.263 111.357 135.238 113.117C135.189 116.569 135.142 120.02 135.097 123.472C132.217 123.472 129.337 123.472 126.37 123.472C126.394 122.479 126.394 122.479 126.419 121.466C126.579 112.172 125.088 104.083 118.808 97.1266C113.487 91.5995 107.023 88.7144 99.5218 88.3567C91.3644 88.4413 84.3029 91.3471 78.3521 97.1839C71.515 104.978 70.7932 112.932 70.7932 123.472C50.937 123.472 31.0809 123.472 10.623 123.472C5.8202 113.976 5.8202 113.976 4.73806 110.701C4.60976 110.324 4.48147 109.948 4.34928 109.56C-2.28635 89.6087 -1.36381 66.466 7.35568 47.3151C8.10084 45.7533 8.89371 44.2227 9.70439 42.6974C9.8593 42.3991 10.0142 42.1008 10.1738 41.7935C19.9598 23.0951 37.2297 9.15893 56.6439 3.16288C75.0824 -2.27054 95.8225 -0.748999 113.05 8.0796Z" fill="#B9D2ED"/>
<path d="M236.147 7.118C236.639 7.33148 236.639 7.33148 237.141 7.54927C244.992 11.0066 251.92 16.0259 258.194 22.0229C258.583 22.3898 258.971 22.7567 259.371 23.1347C274.016 37.679 282.286 59.9741 282.986 80.8679C283.248 95.2679 279.801 108.443 273.351 121.068C273.136 121.705 273.136 121.705 272.917 122.355C271.785 123.695 271.492 123.659 269.842 123.767C268.915 123.776 267.988 123.773 267.061 123.759C266.303 123.762 266.303 123.762 265.529 123.765C264.429 123.767 263.329 123.764 262.229 123.757C260.487 123.744 258.746 123.747 257.005 123.753C253.62 123.762 250.235 123.755 246.85 123.745C242.256 123.732 237.662 123.729 233.068 123.743C231.353 123.744 229.639 123.734 227.924 123.723C226.87 123.725 225.816 123.726 224.762 123.729C224.286 123.722 223.81 123.716 223.319 123.71C220.459 123.731 218.714 124.073 216.397 125.876C215.183 127.94 214.781 129.595 215.176 132.008C215.677 133.802 216.449 135.451 217.243 137.121C218.732 140.643 218.514 144.784 217.328 148.389C215.075 153.34 212.146 156.161 207.273 158.144C202.947 159.425 198.294 158.863 194.349 156.648C190.833 154.157 188.587 150.824 187.46 146.551C187.075 141.801 187.334 137.71 189.641 133.569C190.451 131.534 190.238 129.914 189.756 127.799C189.106 126.15 188.634 125.56 187.184 124.623C185.365 123.843 183.785 123.741 181.852 123.745C181.484 123.74 181.117 123.735 180.738 123.73C179.53 123.716 178.322 123.711 177.114 123.707C176.274 123.699 175.433 123.69 174.593 123.681C172.387 123.658 170.18 123.644 167.974 123.631C165.323 123.614 162.673 123.587 160.023 123.561C156.001 123.523 151.98 123.499 147.959 123.472C147.959 117.602 147.959 111.731 147.959 105.682C150.687 105.682 153.415 105.682 156.226 105.682C163.872 104.51 170.598 101.173 175.403 94.7142C177.099 92.2272 178.551 89.7637 179.651 86.9312C179.798 86.5674 179.944 86.2036 180.095 85.8287C182.457 78.6606 181.491 70.1977 178.602 63.432C175.331 56.5651 169.905 51.6665 163.116 48.9478C162.757 48.7991 162.397 48.6503 162.027 48.4971C159.005 47.4442 155.988 47.3507 152.834 47.2274C152.364 47.2072 151.895 47.187 151.412 47.1662C150.261 47.1169 149.11 47.0697 147.959 47.0246C147.818 43.9811 147.722 40.9385 147.656 37.8922C147.628 36.8585 147.591 35.8251 147.543 34.7923C147.134 25.7616 147.134 25.7616 149.108 22.9942C150.424 21.4868 151.885 20.3234 153.471 19.1381C153.986 18.7026 154.499 18.2629 155.008 17.819C177.79 -1.83689 209.417 -4.68936 236.147 7.118Z" fill="#639CD3"/>
<path d="M108.916 105.457C111.976 108.385 113.688 112.211 114.078 116.504C114.185 120.469 113.123 123.509 111.62 127.097C110.827 129.402 110.893 131.703 111.701 133.99C113.368 135.904 115.438 136.519 117.843 136.646C118.597 136.66 119.352 136.666 120.106 136.666C120.507 136.672 120.909 136.679 121.322 136.685C122.593 136.705 123.864 136.715 125.136 136.724C126.415 136.736 127.694 136.749 128.974 136.768C129.768 136.78 130.562 136.787 131.355 136.789C134.075 136.827 134.075 136.827 135.097 137.896C135.189 139.195 135.225 140.444 135.219 141.743C135.22 142.123 135.221 142.504 135.222 142.896C135.222 143.701 135.221 144.506 135.217 145.311C135.212 146.546 135.217 147.78 135.223 149.015C135.222 149.796 135.221 150.577 135.219 151.359C135.221 151.729 135.223 152.1 135.225 152.482C135.203 155.095 135.203 155.095 134.178 156.167C132.894 156.2 131.642 156.184 130.36 156.137C121.746 155.999 115.284 159.142 108.964 165.171C104.061 170.431 101.659 178.131 101.423 185.345C101.79 193.89 104.791 201.408 110.773 207.316C118.235 213.77 125.482 214.345 135.097 214.825C135.097 225.773 135.097 236.72 135.097 248C133.379 247.281 132.37 246.807 130.958 245.709C130.614 245.443 130.27 245.177 129.915 244.902C129.551 244.616 129.186 244.329 128.81 244.033C128.427 243.735 128.045 243.437 127.651 243.13C123.97 240.252 120.347 237.299 116.731 234.333C115.395 233.24 114.051 232.161 112.705 231.082C105.563 225.335 98.5694 219.416 91.709 213.304C90.16 211.925 88.5923 210.575 87.0125 209.235C84.9962 207.519 83.0666 205.724 81.1472 203.89C79.9159 202.746 78.6495 201.662 77.3669 200.581C75.6273 199.108 74.022 197.587 72.4669 195.906C71.7077 195.108 70.9204 194.373 70.104 193.639C68.2151 191.933 66.388 190.161 64.5635 188.381C64.2763 188.101 63.9892 187.821 63.6933 187.533C62.2878 186.158 60.9058 184.767 59.5559 183.332C58.4976 182.215 57.4129 181.165 56.2689 180.145C53.7431 177.861 51.4091 175.374 49.0548 172.9C48.2595 172.065 47.4617 171.232 46.6637 170.4C44.2709 167.897 41.9188 165.388 39.7221 162.692C38.9463 161.749 38.118 160.877 37.263 160.013C35.4807 158.169 33.8399 156.236 32.2106 154.244C31.8054 153.759 31.3999 153.275 30.9941 152.792C28.3764 149.655 25.8579 146.452 23.4262 143.155C23.1706 142.812 22.9151 142.468 22.6518 142.115C22.2944 141.625 22.2944 141.625 21.9298 141.125C21.7196 140.838 21.5093 140.551 21.2927 140.255C20.6392 139.195 20.2439 138.108 19.8091 136.935C20.1229 136.934 20.4367 136.933 20.76 136.933C28.4045 136.915 36.0489 136.886 43.6933 136.846C47.3901 136.827 51.0869 136.812 54.7838 136.804C58.0069 136.798 61.2299 136.785 64.453 136.764C66.1587 136.753 67.8644 136.746 69.5702 136.746C71.477 136.747 73.3834 136.732 75.2901 136.716C75.8524 136.719 76.4147 136.721 76.9941 136.724C80.1738 136.683 82.3629 136.407 85.0317 134.531C86.2689 132.339 86.2883 130.287 85.9503 127.799C85.4488 126.37 84.8633 125.041 84.201 123.686C82.5434 120.125 82.743 115.832 83.8547 112.113C85.4592 108.021 88.4373 104.686 92.2408 102.751C98.0445 100.372 103.975 101.497 108.916 105.457Z" fill="#BAD2ED"/>
<path d="M113.05 8.0796C113.335 8.22192 113.62 8.36423 113.913 8.51087C121.339 12.2519 127.606 17.7466 133.719 23.4653C133.969 23.6619 134.22 23.8585 134.477 24.061C135.432 25.365 135.271 26.4923 135.274 28.1152C135.278 28.6009 135.278 28.6009 135.281 29.0965C135.286 29.7993 135.287 30.5022 135.286 31.205C135.284 32.3189 135.29 33.4324 135.299 34.5462C135.316 36.9127 135.322 39.2791 135.327 41.6456C135.332 44.3834 135.342 47.1211 135.364 49.8588C135.37 50.9535 135.368 52.0479 135.366 53.1426C135.37 53.8183 135.375 54.494 135.38 55.1697C135.381 55.7568 135.382 56.344 135.383 56.9489C135.621 59.1637 136.264 60.8131 137.853 62.3201C139.624 63.4206 141.352 63.7262 143.365 63.3719C144.17 63.0163 144.963 62.6327 145.747 62.23C149.952 60.1138 154.041 59.4282 158.522 60.9679C163.388 62.9091 166.049 66.1373 168.168 71.0647C169.424 74.9217 169.116 80.2313 167.454 83.8811C165.024 88.0059 162.105 90.8817 157.604 92.22C153.193 93.1056 149.852 92.5064 145.778 90.6987C143.231 89.6116 141.408 89.0141 138.716 89.8611C137.394 90.5283 136.747 91.3923 136.016 92.7008C135.526 94.24 135.484 95.3806 135.462 96.9993C135.453 97.5864 135.444 98.1734 135.434 98.7783C135.427 99.4124 135.419 100.046 135.411 100.7C135.402 101.355 135.392 102.011 135.382 102.666C135.357 104.39 135.334 106.114 135.312 107.838C135.289 109.598 135.263 111.357 135.238 113.117C135.189 116.569 135.142 120.02 135.097 123.472C132.217 123.472 129.337 123.472 126.37 123.472C126.394 122.479 126.394 122.479 126.419 121.466C126.579 112.172 125.088 104.083 118.808 97.1266C113.487 91.5995 107.023 88.7144 99.5218 88.3567C91.3644 88.4413 84.3029 91.3471 78.3521 97.1839C71.515 104.978 70.7932 112.932 70.7932 123.472C50.937 123.472 31.0809 123.472 10.623 123.472C5.8202 113.976 5.8202 113.976 4.73806 110.701C4.60976 110.324 4.48147 109.948 4.34928 109.56C-2.28635 89.6087 -1.36381 66.466 7.35568 47.3151C8.10084 45.7533 8.89371 44.2227 9.70439 42.6974C9.8593 42.3991 10.0142 42.1008 10.1738 41.7935C19.9598 23.0951 37.2297 9.15893 56.6439 3.16288C75.0824 -2.27054 95.8225 -0.748999 113.05 8.0796Z" fill="#B9D2ED"/>
<path d="M236.147 7.118C236.639 7.33148 236.639 7.33148 237.141 7.54927C244.992 11.0066 251.92 16.0259 258.194 22.0229C258.583 22.3898 258.971 22.7567 259.371 23.1347C274.016 37.679 282.286 59.9741 282.986 80.8679C283.248 95.2679 279.801 108.443 273.351 121.068C273.136 121.705 273.136 121.705 272.917 122.355C271.785 123.695 271.492 123.659 269.842 123.767C268.915 123.776 267.988 123.773 267.061 123.759C266.303 123.762 266.303 123.762 265.529 123.765C264.429 123.767 263.329 123.764 262.229 123.757C260.487 123.744 258.746 123.747 257.005 123.753C253.62 123.762 250.235 123.755 246.85 123.745C242.256 123.732 237.662 123.729 233.068 123.743C231.353 123.744 229.639 123.734 227.924 123.723C226.87 123.725 225.816 123.726 224.762 123.729C224.286 123.722 223.81 123.716 223.319 123.71C220.459 123.731 218.714 124.073 216.397 125.876C215.183 127.94 214.781 129.595 215.176 132.008C215.677 133.802 216.449 135.451 217.243 137.121C218.732 140.643 218.514 144.784 217.328 148.389C215.075 153.34 212.146 156.161 207.273 158.144C202.947 159.425 198.294 158.863 194.349 156.648C190.833 154.157 188.587 150.824 187.46 146.551C187.075 141.801 187.334 137.71 189.641 133.569C190.451 131.534 190.238 129.914 189.756 127.799C189.106 126.15 188.634 125.56 187.184 124.623C185.365 123.843 183.785 123.741 181.852 123.745C181.484 123.74 181.117 123.735 180.738 123.73C179.53 123.716 178.322 123.711 177.114 123.707C176.274 123.699 175.433 123.69 174.593 123.681C172.387 123.658 170.18 123.644 167.974 123.631C165.323 123.614 162.673 123.587 160.023 123.561C156.001 123.523 151.98 123.499 147.959 123.472C147.959 117.602 147.959 111.731 147.959 105.682C150.687 105.682 153.415 105.682 156.226 105.682C163.872 104.51 170.598 101.173 175.403 94.7142C177.099 92.2272 178.551 89.7637 179.651 86.9312C179.798 86.5674 179.944 86.2036 180.095 85.8287C182.457 78.6606 181.491 70.1977 178.602 63.432C175.331 56.5651 169.905 51.6665 163.116 48.9478C162.757 48.7991 162.397 48.6503 162.027 48.497C159.005 47.4442 155.988 47.3507 152.834 47.2274C152.364 47.2072 151.895 47.187 151.412 47.1662C150.261 47.1168 149.11 47.0697 147.959 47.0246C147.818 43.9811 147.722 40.9385 147.656 37.8922C147.628 36.8585 147.591 35.8251 147.543 34.7923C147.134 25.7616 147.134 25.7616 149.108 22.9942C150.424 21.4868 151.885 20.3234 153.471 19.1381C153.986 18.7026 154.499 18.2629 155.008 17.819C177.79 -1.83689 209.417 -4.68936 236.147 7.118Z" fill="#639CD3"/>
<path d="M108.916 105.457C111.976 108.385 113.688 112.211 114.078 116.504C114.185 120.469 113.123 123.509 111.62 127.097C110.827 129.402 110.893 131.703 111.701 133.99C113.368 135.904 115.438 136.519 117.843 136.646C118.597 136.66 119.352 136.666 120.106 136.666C120.507 136.672 120.909 136.679 121.322 136.685C122.593 136.705 123.864 136.715 125.136 136.724C126.415 136.736 127.694 136.749 128.974 136.768C129.768 136.78 130.562 136.787 131.355 136.789C134.075 136.827 134.075 136.827 135.097 137.896C135.189 139.195 135.225 140.444 135.219 141.743C135.22 142.123 135.221 142.504 135.222 142.896C135.222 143.701 135.221 144.506 135.217 145.311C135.212 146.546 135.217 147.78 135.223 149.015C135.222 149.796 135.221 150.577 135.219 151.359C135.221 151.729 135.223 152.1 135.225 152.482C135.203 155.095 135.203 155.095 134.178 156.167C132.894 156.2 131.642 156.184 130.36 156.137C121.746 155.999 115.284 159.142 108.964 165.171C104.061 170.431 101.659 178.131 101.423 185.345C101.79 193.89 104.791 201.408 110.773 207.316C118.235 213.77 125.482 214.345 135.097 214.825C135.097 225.773 135.097 236.72 135.097 248C133.379 247.281 132.37 246.807 130.958 245.709C130.614 245.443 130.27 245.177 129.915 244.902C129.551 244.616 129.186 244.329 128.81 244.033C128.427 243.735 128.045 243.437 127.651 243.13C123.97 240.252 120.347 237.299 116.731 234.333C115.395 233.24 114.051 232.161 112.705 231.082C105.563 225.335 98.5694 219.416 91.709 213.304C90.16 211.925 88.5923 210.575 87.0125 209.235C84.9962 207.519 83.0666 205.724 81.1472 203.89C79.9159 202.746 78.6495 201.662 77.3669 200.581C75.6273 199.108 74.022 197.587 72.4669 195.906C71.7077 195.108 70.9204 194.373 70.104 193.639C68.2151 191.933 66.388 190.161 64.5635 188.381C64.2763 188.101 63.9892 187.821 63.6933 187.533C62.2878 186.158 60.9058 184.767 59.5559 183.332C58.4976 182.215 57.4129 181.165 56.2689 180.145C53.7431 177.861 51.4091 175.374 49.0548 172.9C48.2595 172.065 47.4617 171.232 46.6637 170.4C44.2709 167.897 41.9188 165.388 39.7221 162.692C38.9463 161.749 38.118 160.877 37.263 160.013C35.4807 158.169 33.8399 156.236 32.2106 154.244C31.8054 153.759 31.3999 153.275 30.9941 152.792C28.3764 149.655 25.8579 146.452 23.4262 143.155C23.1706 142.812 22.9151 142.468 22.6518 142.115C22.2944 141.625 22.2944 141.625 21.9298 141.125C21.7196 140.838 21.5093 140.551 21.2927 140.255C20.6392 139.195 20.2439 138.108 19.8091 136.935C20.1229 136.934 20.4367 136.933 20.76 136.933C28.4045 136.915 36.0489 136.886 43.6933 136.846C47.3901 136.827 51.0869 136.812 54.7838 136.804C58.0069 136.798 61.2299 136.785 64.453 136.764C66.1587 136.753 67.8644 136.746 69.5702 136.746C71.477 136.747 73.3834 136.732 75.2901 136.716C75.8524 136.719 76.4147 136.721 76.9941 136.724C80.1738 136.683 82.3629 136.407 85.0317 134.531C86.2689 132.339 86.2883 130.287 85.9503 127.799C85.4488 126.37 84.8633 125.041 84.201 123.686C82.5434 120.125 82.743 115.832 83.8547 112.113C85.4592 108.021 88.4373 104.686 92.2408 102.751C98.0445 100.372 103.975 101.497 108.916 105.457Z" fill="#BAD2ED"/>
<path d="M149.963 136.819C150.646 136.822 150.646 136.822 151.342 136.825C152.114 136.826 152.114 136.826 152.902 136.826C153.46 136.831 154.018 136.836 154.593 136.841C155.162 136.842 155.732 136.843 156.319 136.845C157.834 136.849 159.348 136.858 160.863 136.869C162.409 136.878 163.954 136.883 165.5 136.888C168.533 136.898 171.565 136.914 174.598 136.935C174.615 137.391 174.615 137.391 174.632 137.856C174.684 139.247 174.74 140.637 174.795 142.028C174.813 142.506 174.831 142.985 174.849 143.478C175.147 150.791 177.252 157.948 182.216 163.336C188.536 169.062 196.251 172.334 204.654 171.973C213.331 171.165 219.676 166.943 225.266 160.103C230.351 153.2 230.634 145.354 230.634 136.935C241.245 136.935 251.855 136.935 262.786 136.935C261.954 139.112 261.187 140.405 259.83 142.223C259.628 142.494 259.426 142.764 259.219 143.043C257.354 145.525 255.409 147.932 253.448 150.329C252.286 151.753 251.162 153.206 250.04 154.664C248.67 156.428 247.256 158.064 245.691 159.638C244.878 160.489 244.131 161.371 243.384 162.286C241.728 164.28 239.989 166.165 238.206 168.035C237.886 168.371 237.566 168.708 237.237 169.054C236.564 169.761 235.891 170.467 235.217 171.172C234.201 172.237 233.188 173.305 232.176 174.374C228.739 177.986 225.293 181.399 221.448 184.534C220.445 185.406 219.455 186.293 218.463 187.178C216.65 188.792 214.826 190.386 212.98 191.956C211.029 193.618 209.114 195.317 207.209 197.035C204.907 199.112 202.577 201.146 200.217 203.152C198.784 204.383 197.369 205.635 195.956 206.891C193.729 208.873 191.477 210.819 189.21 212.751C187.772 213.989 186.351 215.246 184.933 216.507C182.705 218.489 180.454 220.436 178.186 222.367C176.749 223.605 175.328 224.862 173.909 226.123C171.682 228.105 169.43 230.052 167.163 231.983C165.725 233.221 164.304 234.478 162.886 235.74C160.664 237.716 158.42 239.659 156.156 241.582C155.173 242.43 154.203 243.286 153.238 244.155C152.966 244.4 152.695 244.644 152.415 244.895C151.883 245.375 151.352 245.856 150.823 246.34C148.978 248 148.978 248 147.958 248C147.955 247.46 147.952 246.921 147.95 246.365C147.923 241.272 147.89 236.178 147.85 231.085C147.829 228.467 147.811 225.849 147.799 223.23C147.787 220.702 147.768 218.174 147.745 215.646C147.737 214.683 147.732 213.72 147.729 212.757C147.725 211.404 147.712 210.052 147.697 208.7C147.698 208.305 147.698 207.909 147.699 207.502C147.655 204.667 147.317 201.809 145.441 199.601C144.047 198.318 142.732 198.293 140.907 198.303C139.02 198.574 137.464 199.414 135.777 200.309C132.256 202.079 127.886 201.875 124.217 200.671C119.933 198.795 116.787 195.413 114.887 191C113.816 187.131 113.715 182.514 115.146 178.734C117.589 174.095 121.303 170.901 126.153 169.394C131.123 168.318 134.81 169.719 139.231 172.033C141.3 172.233 143.208 172.266 145.173 171.522C147.304 169.427 147.587 167.107 147.683 164.166C147.695 162.949 147.701 161.732 147.701 160.515C147.707 159.864 147.713 159.214 147.72 158.563C147.736 156.86 147.746 155.157 147.753 153.454C147.764 150.72 147.782 147.987 147.809 145.253C147.816 144.299 147.818 143.345 147.819 142.391C147.824 141.814 147.828 141.238 147.833 140.644C147.835 140.136 147.837 139.627 147.839 139.103C148 137.468 148.388 136.987 149.963 136.819Z" fill="#639CD3"/>
<path d="M149.963 136.819C150.646 136.822 150.646 136.822 151.342 136.825C152.114 136.826 152.114 136.826 152.902 136.826C153.46 136.831 154.018 136.836 154.593 136.841C155.162 136.842 155.732 136.843 156.319 136.845C157.834 136.849 159.348 136.858 160.863 136.869C162.409 136.878 163.954 136.883 165.5 136.888C168.533 136.898 171.565 136.914 174.598 136.935C174.615 137.391 174.615 137.391 174.632 137.856C174.684 139.247 174.74 140.637 174.795 142.028C174.813 142.506 174.831 142.985 174.849 143.478C175.147 150.791 177.252 157.948 182.216 163.336C188.536 169.062 196.251 172.334 204.654 171.973C213.331 171.165 219.676 166.943 225.266 160.103C230.351 153.2 230.634 145.354 230.634 136.935C241.245 136.935 251.855 136.935 262.786 136.935C261.954 139.112 261.187 140.405 259.83 142.223C259.628 142.494 259.426 142.764 259.219 143.043C257.354 145.525 255.409 147.932 253.448 150.329C252.286 151.753 251.162 153.206 250.04 154.664C248.67 156.428 247.256 158.064 245.691 159.638C244.878 160.489 244.131 161.371 243.384 162.286C241.728 164.28 239.989 166.165 238.206 168.035C237.886 168.371 237.566 168.708 237.237 169.054C236.564 169.761 235.891 170.467 235.217 171.172C234.201 172.237 233.188 173.305 232.176 174.374C228.739 177.986 225.293 181.399 221.448 184.534C220.445 185.406 219.455 186.293 218.463 187.178C216.65 188.792 214.826 190.386 212.98 191.956C211.029 193.618 209.114 195.317 207.209 197.035C204.907 199.112 202.577 201.146 200.217 203.152C198.784 204.383 197.369 205.635 195.956 206.891C193.729 208.873 191.477 210.819 189.21 212.751C187.772 213.989 186.351 215.246 184.933 216.507C182.705 218.489 180.454 220.436 178.186 222.367C176.749 223.605 175.328 224.862 173.909 226.123C171.682 228.105 169.43 230.052 167.163 231.983C165.725 233.221 164.304 234.478 162.886 235.74C160.664 237.716 158.42 239.659 156.156 241.582C155.173 242.43 154.203 243.286 153.238 244.155C152.966 244.4 152.695 244.644 152.415 244.895C151.883 245.375 151.352 245.856 150.823 246.34C148.978 248 148.978 248 147.958 248C147.955 247.46 147.952 246.921 147.95 246.365C147.923 241.272 147.89 236.178 147.85 231.085C147.829 228.467 147.811 225.849 147.799 223.23C147.787 220.702 147.768 218.174 147.745 215.646C147.737 214.683 147.732 213.72 147.729 212.757C147.725 211.404 147.712 210.052 147.697 208.7C147.698 208.305 147.698 207.909 147.699 207.502C147.655 204.667 147.317 201.809 145.441 199.601C144.047 198.318 142.732 198.293 140.907 198.303C139.02 198.574 137.464 199.414 135.777 200.309C132.256 202.079 127.886 201.875 124.217 200.671C119.933 198.795 116.787 195.413 114.887 191C113.816 187.131 113.715 182.514 115.146 178.734C117.589 174.095 121.303 170.901 126.153 169.394C131.123 168.318 134.81 169.719 139.231 172.033C141.3 172.233 143.208 172.266 145.173 171.522C147.304 169.427 147.587 167.107 147.683 164.166C147.695 162.949 147.701 161.732 147.701 160.515C147.707 159.864 147.713 159.214 147.72 158.563C147.736 156.86 147.746 155.157 147.753 153.454C147.764 150.72 147.782 147.987 147.809 145.253C147.816 144.299 147.818 143.345 147.819 142.391C147.824 141.814 147.828 141.238 147.833 140.644C147.835 140.136 147.837 139.627 147.839 139.103C148 137.468 148.388 136.987 149.963 136.819Z" fill="#639CD3"/>
</svg>
