<svg width="800" height="627" viewBox="0 0 800 627" fill="none" xmlns="http://www.w3.org/2000/svg">
<path d="M657.854 611.365L535.896 489.382L455.674 569.604L298.514 412.444L146.813 564.142L141.083 620.67L140.444 626.639H658.125L658.764 620.368L657.854 611.365Z" fill="#A0A0A0"/>
<path d="M696.953 337.879C706.853 327.665 724.524 313.304 745.176 313.304C777.325 313.304 800 337.879 800 372.466C800 407.053 777.326 431.425 745.389 431.425C724.737 431.425 707.066 416.963 697.166 406.85C694.084 403.653 690.333 401.102 686.153 399.36C681.974 397.619 677.458 396.725 672.894 396.737C664.001 396.737 655.471 400.093 649.183 406.068C642.894 412.042 639.361 420.145 639.361 428.593L657.93 611.738L535.971 489.757L455.748 569.98L298.588 412.819L146.889 564.518L160.639 428.897C160.639 420.465 157.121 412.378 150.855 406.407C144.589 400.436 136.087 397.067 127.212 397.041C122.633 397.027 118.1 397.919 113.903 399.66C109.706 401.401 105.937 403.953 102.834 407.154C92.9342 417.368 75.3693 431.728 54.6108 431.728C22.4618 431.728 0 407.356 0 372.769C0 338.182 22.6747 313.81 54.6108 313.81C75.3693 313.81 92.9342 328.272 102.834 338.385C105.937 341.585 109.706 344.137 113.903 345.878C118.1 347.619 122.633 348.511 127.212 348.498C136.087 348.471 144.589 345.103 150.855 339.132C157.121 333.16 160.639 325.073 160.639 316.641L142.222 134.605L338.417 152.607C347.31 152.607 355.839 149.251 362.128 143.276C368.417 137.302 371.949 129.199 371.949 120.751C371.962 116.415 371.021 112.125 369.188 108.154C367.355 104.184 364.67 100.621 361.304 97.6927C350.552 88.2875 335.436 71.4996 335.436 51.7791C335.436 21.3386 361.091 0 397.498 0C433.905 0 459.561 21.4397 459.561 51.7791C459.561 71.4996 444.338 88.2875 433.693 97.6927C430.327 100.621 427.641 104.184 425.808 108.154C423.975 112.125 423.035 116.415 423.047 120.751C423.047 129.199 426.58 137.302 432.869 143.276C439.158 149.251 447.687 152.607 456.58 152.607L657.671 134.1L639.148 316.136C639.148 324.585 642.681 332.687 648.97 338.662C655.259 344.636 663.788 347.992 672.681 347.992C677.245 348.004 681.761 347.111 685.941 345.369C690.12 343.628 693.871 341.076 696.953 337.879Z" fill="#D9D9D9"/>
<path d="M574.302 311.224C581.528 266.705 551.297 224.757 506.778 217.53C462.259 210.304 420.311 240.536 413.085 285.055C405.858 329.573 436.09 371.521 480.609 378.748C525.128 385.974 567.076 355.743 574.302 311.224Z" fill="#A0A0A0"/>
</svg>
