<svg width="817" height="781" viewBox="0 0 817 781" fill="none" xmlns="http://www.w3.org/2000/svg">
<path d="M377.132 672.285C379.063 672.686 395.765 681.054 413.951 690.461C431.914 700.187 448.766 707.709 451.217 707.999C453.891 707.971 464.167 691.401 479.736 660.952C517.581 586.688 550.618 548.983 567.834 561.038C571.1 563.324 577.769 574.648 582.804 585.779C594.503 612.032 605.263 620.041 623.395 615.627C658.099 607.131 697.552 550.154 693.963 514.845C692.719 502.092 690.42 499.056 679.137 493.057C671.864 488.915 658.348 486.105 648.467 486.316C639.107 486.416 628.116 484.424 624.554 481.929C606.447 469.251 629.388 426.378 687.421 364.348C712.791 336.96 723.061 324.188 721.58 321.25C720.692 318.727 703.854 301.709 684.194 283.665C628.111 231.087 590.698 212.495 578.415 230.036C576.405 232.906 573.565 245.176 571.912 258.277C566.653 299.273 548.583 311.811 511.309 299.97C486.954 292.423 473.893 283.278 458.471 262.973C434.596 231.997 440.198 210.729 476.923 191.765C488.372 185.523 499.227 178.865 501.237 175.995C513.519 158.454 483.252 129.656 414.663 94.9375C390.984 82.6348 369.233 72.6328 366.558 72.6614C363.29 72.2743 354.802 86.2929 337.742 119.501C299.302 195.249 266.861 231.47 248.754 218.791C245.192 216.297 239.413 205.597 235.565 195.298C219.585 149.887 180.282 154.211 144.551 205.24C120.657 239.365 116.299 273.387 134.109 285.858C138.859 289.184 152.745 292.728 165.447 293.542C177.628 294.467 190.55 296.861 193.815 299.147C211.032 311.202 186.9 355.143 130.058 416.105C105.654 442.744 94.4177 456.264 95.8991 459.203C98.7858 466.452 161.103 523.396 183.069 538.777C207.707 556.028 229.17 560.125 238.47 550.001C241.967 546.271 245.104 534.209 246.311 521.746C248.664 486.795 262.351 473.565 292.21 476.411C317.167 478.677 356.943 506.529 367.607 529.205C380.494 556.29 372.67 573.15 340.483 588.161C329.48 593.765 318.475 601.269 316.389 605.512C310.057 617.713 322.287 636.258 349.523 654.854C362.584 663.999 374.904 671.675 377.132 672.285Z" fill="#D2D2D2"/>
<path d="M299.737 379.224C298.094 379.224 296.622 378.957 295.321 378.424C294.02 377.891 292.974 377.101 292.185 376.056C291.417 375.011 291.012 373.752 290.969 372.28H296.793C296.878 373.112 297.166 373.752 297.657 374.2C298.148 374.627 298.788 374.84 299.577 374.84C300.388 374.84 301.028 374.659 301.497 374.296C301.966 373.912 302.201 373.389 302.201 372.728C302.201 372.173 302.009 371.715 301.625 371.352C301.262 370.989 300.804 370.691 300.249 370.456C299.716 370.221 298.948 369.955 297.945 369.656C296.494 369.208 295.31 368.76 294.393 368.312C293.476 367.864 292.686 367.203 292.025 366.328C291.364 365.453 291.033 364.312 291.033 362.904C291.033 360.813 291.79 359.181 293.305 358.008C294.82 356.813 296.793 356.216 299.225 356.216C301.7 356.216 303.694 356.813 305.209 358.008C306.724 359.181 307.534 360.824 307.641 362.936H301.721C301.678 362.211 301.412 361.645 300.921 361.24C300.43 360.813 299.801 360.6 299.033 360.6C298.372 360.6 297.838 360.781 297.433 361.144C297.028 361.485 296.825 361.987 296.825 362.648C296.825 363.373 297.166 363.939 297.849 364.344C298.532 364.749 299.598 365.187 301.049 365.656C302.5 366.147 303.673 366.616 304.569 367.064C305.486 367.512 306.276 368.163 306.937 369.016C307.598 369.869 307.929 370.968 307.929 372.312C307.929 373.592 307.598 374.755 306.937 375.8C306.297 376.845 305.358 377.677 304.121 378.296C302.884 378.915 301.422 379.224 299.737 379.224ZM314.049 359.288C313.089 359.288 312.299 359.011 311.681 358.456C311.083 357.88 310.785 357.176 310.785 356.344C310.785 355.491 311.083 354.787 311.681 354.232C312.299 353.656 313.089 353.368 314.049 353.368C314.987 353.368 315.755 353.656 316.353 354.232C316.971 354.787 317.281 355.491 317.281 356.344C317.281 357.176 316.971 357.88 316.353 358.456C315.755 359.011 314.987 359.288 314.049 359.288ZM316.769 361.144V379H311.297V361.144H316.769ZM331.614 360.952C333.705 360.952 335.369 361.635 336.606 363C337.865 364.344 338.494 366.2 338.494 368.568V379H333.054V369.304C333.054 368.109 332.745 367.181 332.126 366.52C331.507 365.859 330.675 365.528 329.63 365.528C328.585 365.528 327.753 365.859 327.134 366.52C326.515 367.181 326.206 368.109 326.206 369.304V379H320.734V361.144H326.206V363.512C326.761 362.723 327.507 362.104 328.446 361.656C329.385 361.187 330.441 360.952 331.614 360.952ZM347.99 370.04C347.99 368.205 348.331 366.595 349.014 365.208C349.718 363.821 350.667 362.755 351.862 362.008C353.056 361.261 354.39 360.888 355.862 360.888C357.035 360.888 358.102 361.133 359.062 361.624C360.043 362.115 360.811 362.776 361.366 363.608V355.32H366.838V379H361.366V376.44C360.854 377.293 360.118 377.976 359.158 378.488C358.219 379 357.12 379.256 355.862 379.256C354.39 379.256 353.056 378.883 351.862 378.136C350.667 377.368 349.718 376.291 349.014 374.904C348.331 373.496 347.99 371.875 347.99 370.04ZM361.366 370.072C361.366 368.707 360.982 367.629 360.214 366.84C359.467 366.051 358.55 365.656 357.462 365.656C356.374 365.656 355.446 366.051 354.678 366.84C353.931 367.608 353.558 368.675 353.558 370.04C353.558 371.405 353.931 372.493 354.678 373.304C355.446 374.093 356.374 374.488 357.462 374.488C358.55 374.488 359.467 374.093 360.214 373.304C360.982 372.515 361.366 371.437 361.366 370.072ZM369.709 370.04C369.709 368.205 370.05 366.595 370.733 365.208C371.437 363.821 372.386 362.755 373.581 362.008C374.775 361.261 376.109 360.888 377.581 360.888C378.839 360.888 379.938 361.144 380.877 361.656C381.837 362.168 382.573 362.84 383.085 363.672V361.144H388.557V379H383.085V376.472C382.551 377.304 381.805 377.976 380.845 378.488C379.906 379 378.807 379.256 377.549 379.256C376.098 379.256 374.775 378.883 373.581 378.136C372.386 377.368 371.437 376.291 370.733 374.904C370.05 373.496 369.709 371.875 369.709 370.04ZM383.085 370.072C383.085 368.707 382.701 367.629 381.933 366.84C381.186 366.051 380.269 365.656 379.181 365.656C378.093 365.656 377.165 366.051 376.397 366.84C375.65 367.608 375.277 368.675 375.277 370.04C375.277 371.405 375.65 372.493 376.397 373.304C377.165 374.093 378.093 374.488 379.181 374.488C380.269 374.488 381.186 374.093 381.933 373.304C382.701 372.515 383.085 371.437 383.085 370.072ZM402.467 374.36V379H399.683C397.699 379 396.153 378.52 395.043 377.56C393.934 376.579 393.379 374.989 393.379 372.792V365.688H391.203V361.144H393.379V356.792H398.851V361.144H402.435V365.688H398.851V372.856C398.851 373.389 398.979 373.773 399.235 374.008C399.491 374.243 399.918 374.36 400.515 374.36H402.467ZM413.643 379.256C411.894 379.256 410.315 378.883 408.907 378.136C407.521 377.389 406.422 376.323 405.611 374.936C404.822 373.549 404.427 371.928 404.427 370.072C404.427 368.237 404.833 366.627 405.643 365.24C406.454 363.832 407.563 362.755 408.971 362.008C410.379 361.261 411.958 360.888 413.707 360.888C415.457 360.888 417.035 361.261 418.443 362.008C419.851 362.755 420.961 363.832 421.771 365.24C422.582 366.627 422.987 368.237 422.987 370.072C422.987 371.907 422.571 373.528 421.739 374.936C420.929 376.323 419.809 377.389 418.379 378.136C416.971 378.883 415.393 379.256 413.643 379.256ZM413.643 374.52C414.689 374.52 415.574 374.136 416.299 373.368C417.046 372.6 417.419 371.501 417.419 370.072C417.419 368.643 417.057 367.544 416.331 366.776C415.627 366.008 414.753 365.624 413.707 365.624C412.641 365.624 411.755 366.008 411.051 366.776C410.347 367.523 409.995 368.621 409.995 370.072C409.995 371.501 410.337 372.6 411.019 373.368C411.723 374.136 412.598 374.52 413.643 374.52ZM433.154 379.256C431.597 379.256 430.21 378.989 428.994 378.456C427.778 377.923 426.818 377.197 426.114 376.28C425.41 375.341 425.016 374.296 424.93 373.144H430.338C430.402 373.763 430.69 374.264 431.202 374.648C431.714 375.032 432.344 375.224 433.09 375.224C433.773 375.224 434.296 375.096 434.658 374.84C435.042 374.563 435.234 374.211 435.234 373.784C435.234 373.272 434.968 372.899 434.434 372.664C433.901 372.408 433.037 372.131 431.842 371.832C430.562 371.533 429.496 371.224 428.642 370.904C427.789 370.563 427.053 370.04 426.434 369.336C425.816 368.611 425.506 367.64 425.506 366.424C425.506 365.4 425.784 364.472 426.338 363.64C426.914 362.787 427.746 362.115 428.834 361.624C429.944 361.133 431.256 360.888 432.77 360.888C435.01 360.888 436.77 361.443 438.05 362.552C439.352 363.661 440.098 365.133 440.29 366.968H435.234C435.149 366.349 434.872 365.859 434.402 365.496C433.954 365.133 433.357 364.952 432.61 364.952C431.97 364.952 431.48 365.08 431.138 365.336C430.797 365.571 430.626 365.901 430.626 366.328C430.626 366.84 430.893 367.224 431.426 367.48C431.981 367.736 432.834 367.992 433.986 368.248C435.309 368.589 436.386 368.931 437.218 369.272C438.05 369.592 438.776 370.125 439.394 370.872C440.034 371.597 440.365 372.579 440.386 373.816C440.386 374.861 440.088 375.8 439.49 376.632C438.914 377.443 438.072 378.083 436.962 378.552C435.874 379.021 434.605 379.256 433.154 379.256ZM455.987 363.672C456.521 362.84 457.257 362.168 458.195 361.656C459.134 361.144 460.233 360.888 461.491 360.888C462.963 360.888 464.297 361.261 465.491 362.008C466.686 362.755 467.625 363.821 468.307 365.208C469.011 366.595 469.363 368.205 469.363 370.04C469.363 371.875 469.011 373.496 468.307 374.904C467.625 376.291 466.686 377.368 465.491 378.136C464.297 378.883 462.963 379.256 461.491 379.256C460.254 379.256 459.155 379 458.195 378.488C457.257 377.976 456.521 377.315 455.987 376.504V387.512H450.515V361.144H455.987V363.672ZM463.795 370.04C463.795 368.675 463.411 367.608 462.643 366.84C461.897 366.051 460.969 365.656 459.859 365.656C458.771 365.656 457.843 366.051 457.075 366.84C456.329 367.629 455.955 368.707 455.955 370.072C455.955 371.437 456.329 372.515 457.075 373.304C457.843 374.093 458.771 374.488 459.859 374.488C460.947 374.488 461.875 374.093 462.643 373.304C463.411 372.493 463.795 371.405 463.795 370.04ZM471.146 370.04C471.146 368.205 471.487 366.595 472.17 365.208C472.874 363.821 473.823 362.755 475.018 362.008C476.213 361.261 477.546 360.888 479.018 360.888C480.277 360.888 481.375 361.144 482.314 361.656C483.274 362.168 484.01 362.84 484.522 363.672V361.144H489.994V379H484.522V376.472C483.989 377.304 483.242 377.976 482.282 378.488C481.343 379 480.245 379.256 478.986 379.256C477.535 379.256 476.213 378.883 475.018 378.136C473.823 377.368 472.874 376.291 472.17 374.904C471.487 373.496 471.146 371.875 471.146 370.04ZM484.522 370.072C484.522 368.707 484.138 367.629 483.37 366.84C482.623 366.051 481.706 365.656 480.618 365.656C479.53 365.656 478.602 366.051 477.834 366.84C477.087 367.608 476.714 368.675 476.714 370.04C476.714 371.405 477.087 372.493 477.834 373.304C478.602 374.093 479.53 374.488 480.618 374.488C481.706 374.488 482.623 374.093 483.37 373.304C484.138 372.515 484.522 371.437 484.522 370.072ZM499.425 364.12C500.065 363.139 500.865 362.371 501.825 361.816C502.785 361.24 503.851 360.952 505.025 360.952V366.744H503.521C502.155 366.744 501.131 367.043 500.449 367.64C499.766 368.216 499.425 369.24 499.425 370.712V379H493.953V361.144H499.425V364.12ZM506.552 370.04C506.552 368.205 506.894 366.595 507.576 365.208C508.28 363.821 509.23 362.755 510.424 362.008C511.619 361.261 512.952 360.888 514.424 360.888C515.683 360.888 516.782 361.144 517.72 361.656C518.68 362.168 519.416 362.84 519.928 363.672V361.144H525.4V379H519.928V376.472C519.395 377.304 518.648 377.976 517.688 378.488C516.75 379 515.651 379.256 514.392 379.256C512.942 379.256 511.619 378.883 510.424 378.136C509.23 377.368 508.28 376.291 507.576 374.904C506.894 373.496 506.552 371.875 506.552 370.04ZM519.928 370.072C519.928 368.707 519.544 367.629 518.776 366.84C518.03 366.051 517.112 365.656 516.024 365.656C514.936 365.656 514.008 366.051 513.24 366.84C512.494 367.608 512.12 368.675 512.12 370.04C512.12 371.405 512.494 372.493 513.24 373.304C514.008 374.093 514.936 374.488 516.024 374.488C517.112 374.488 518.03 374.093 518.776 373.304C519.544 372.515 519.928 371.437 519.928 370.072ZM366.174 408.952C368.393 408.952 370.153 409.624 371.454 410.968C372.777 412.312 373.438 414.179 373.438 416.568V427H367.998V417.304C367.998 416.152 367.689 415.267 367.07 414.648C366.473 414.008 365.641 413.688 364.574 413.688C363.508 413.688 362.665 414.008 362.046 414.648C361.449 415.267 361.15 416.152 361.15 417.304V427H355.71V417.304C355.71 416.152 355.401 415.267 354.782 414.648C354.185 414.008 353.353 413.688 352.286 413.688C351.22 413.688 350.377 414.008 349.758 414.648C349.161 415.267 348.862 416.152 348.862 417.304V427H343.39V409.144H348.862V411.384C349.417 410.637 350.142 410.051 351.038 409.624C351.934 409.176 352.948 408.952 354.078 408.952C355.422 408.952 356.617 409.24 357.662 409.816C358.729 410.392 359.561 411.213 360.158 412.28C360.777 411.299 361.62 410.499 362.686 409.88C363.753 409.261 364.916 408.952 366.174 408.952ZM385.393 427.256C383.644 427.256 382.065 426.883 380.657 426.136C379.271 425.389 378.172 424.323 377.361 422.936C376.572 421.549 376.177 419.928 376.177 418.072C376.177 416.237 376.583 414.627 377.393 413.24C378.204 411.832 379.313 410.755 380.721 410.008C382.129 409.261 383.708 408.888 385.457 408.888C387.207 408.888 388.785 409.261 390.193 410.008C391.601 410.755 392.711 411.832 393.521 413.24C394.332 414.627 394.737 416.237 394.737 418.072C394.737 419.907 394.321 421.528 393.489 422.936C392.679 424.323 391.559 425.389 390.129 426.136C388.721 426.883 387.143 427.256 385.393 427.256ZM385.393 422.52C386.439 422.52 387.324 422.136 388.049 421.368C388.796 420.6 389.169 419.501 389.169 418.072C389.169 416.643 388.807 415.544 388.081 414.776C387.377 414.008 386.503 413.624 385.457 413.624C384.391 413.624 383.505 414.008 382.801 414.776C382.097 415.523 381.745 416.621 381.745 418.072C381.745 419.501 382.087 420.6 382.769 421.368C383.473 422.136 384.348 422.52 385.393 422.52ZM404.904 427.256C403.347 427.256 401.96 426.989 400.744 426.456C399.528 425.923 398.568 425.197 397.864 424.28C397.16 423.341 396.766 422.296 396.68 421.144H402.088C402.152 421.763 402.44 422.264 402.952 422.648C403.464 423.032 404.094 423.224 404.84 423.224C405.523 423.224 406.046 423.096 406.408 422.84C406.792 422.563 406.984 422.211 406.984 421.784C406.984 421.272 406.718 420.899 406.184 420.664C405.651 420.408 404.787 420.131 403.592 419.832C402.312 419.533 401.246 419.224 400.392 418.904C399.539 418.563 398.803 418.04 398.184 417.336C397.566 416.611 397.256 415.64 397.256 414.424C397.256 413.4 397.534 412.472 398.088 411.64C398.664 410.787 399.496 410.115 400.584 409.624C401.694 409.133 403.006 408.888 404.52 408.888C406.76 408.888 408.52 409.443 409.8 410.552C411.102 411.661 411.848 413.133 412.04 414.968H406.984C406.899 414.349 406.622 413.859 406.152 413.496C405.704 413.133 405.107 412.952 404.36 412.952C403.72 412.952 403.23 413.08 402.888 413.336C402.547 413.571 402.376 413.901 402.376 414.328C402.376 414.84 402.643 415.224 403.176 415.48C403.731 415.736 404.584 415.992 405.736 416.248C407.059 416.589 408.136 416.931 408.968 417.272C409.8 417.592 410.526 418.125 411.144 418.872C411.784 419.597 412.115 420.579 412.136 421.816C412.136 422.861 411.838 423.8 411.24 424.632C410.664 425.443 409.822 426.083 408.712 426.552C407.624 427.021 406.355 427.256 404.904 427.256ZM425.436 422.36V427H422.652C420.668 427 419.121 426.52 418.012 425.56C416.903 424.579 416.348 422.989 416.348 420.792V413.688H414.172V409.144H416.348V404.792H421.82V409.144H425.404V413.688H421.82V420.856C421.82 421.389 421.948 421.773 422.204 422.008C422.46 422.243 422.887 422.36 423.484 422.36H425.436ZM433.956 412.12C434.596 411.139 435.396 410.371 436.356 409.816C437.316 409.24 438.383 408.952 439.556 408.952V414.744H438.052C436.687 414.744 435.663 415.043 434.98 415.64C434.297 416.216 433.956 417.24 433.956 418.712V427H428.484V409.144H433.956V412.12ZM441.084 418.04C441.084 416.205 441.425 414.595 442.108 413.208C442.812 411.821 443.761 410.755 444.956 410.008C446.15 409.261 447.484 408.888 448.956 408.888C450.214 408.888 451.313 409.144 452.252 409.656C453.212 410.168 453.948 410.84 454.46 411.672V409.144H459.932V427H454.46V424.472C453.926 425.304 453.18 425.976 452.22 426.488C451.281 427 450.182 427.256 448.924 427.256C447.473 427.256 446.15 426.883 444.956 426.136C443.761 425.368 442.812 424.291 442.108 422.904C441.425 421.496 441.084 419.875 441.084 418.04ZM454.46 418.072C454.46 416.707 454.076 415.629 453.308 414.84C452.561 414.051 451.644 413.656 450.556 413.656C449.468 413.656 448.54 414.051 447.772 414.84C447.025 415.608 446.652 416.675 446.652 418.04C446.652 419.405 447.025 420.493 447.772 421.304C448.54 422.093 449.468 422.488 450.556 422.488C451.644 422.488 452.561 422.093 453.308 421.304C454.076 420.515 454.46 419.437 454.46 418.072ZM469.362 412.12C470.002 411.139 470.802 410.371 471.762 409.816C472.722 409.24 473.789 408.952 474.962 408.952V414.744H473.458C472.093 414.744 471.069 415.043 470.386 415.64C469.704 416.216 469.362 417.24 469.362 418.712V427H463.89V409.144H469.362V412.12Z" fill="white"/>
</svg>
